<svg width="83" height="16" viewBox="0 0 83 16" fill="none" xmlns="http://www.w3.org/2000/svg">
<path d="M3.23741 15.3175V0.425781H0V15.3175H3.23741ZM6.15523 5.90025L6.87949 5.2384C8.9596 3.17342 10.5197 1.7684 12.3086 0.469274V0.425781H8.22022C8.17861 1.32401 8.77428 2.81223 6.61853 4.89802L3.72718 7.68726L8.75348 15.3175H12.9477L6.15523 5.90025Z" fill="#373232"/>
<path d="M24.3144 0H24.2293L20.4606 8.75348C19.1369 11.7791 18.458 13.2673 17.3499 15.3115H21.6519C21.5252 14.1202 19.3089 12.8532 20.1826 10.5197H25.3148L27.3817 15.3172H30.916L24.3144 0ZM20.332 10.1377C20.4606 9.7595 20.6516 9.34915 20.8425 8.92367L22.7336 4.47224L25.1597 10.1453L20.332 10.1377Z" fill="#373232"/>
<path d="M44.9021 0.425781H33.8927L33.5939 4.11136H33.6166C35.2561 2.74794 36.2356 0.788855 37.4704 0.788855H37.7692V15.3175H41.035V0.788855H41.3546C42.5894 0.788855 43.5481 2.74794 45.1876 4.11136H45.2292L44.9021 0.425781Z" fill="#373232"/>
<path d="M60.4746 0.425781V7.39037H54.4064V0.425781H51.1689V15.3175H54.4064V7.75344H60.4746V15.3175H63.7271V0.425781H60.4746Z" fill="#373232"/>
<path d="M76.3967 0H76.3116L72.5447 8.75348C71.221 11.7791 70.5421 13.2673 69.434 15.3115H73.736C73.6093 14.1202 71.393 12.8532 72.2667 10.5197H77.3989L79.4658 15.3172H83.0001L76.3967 0ZM72.4255 10.1377C72.5541 9.7595 72.7451 9.34915 72.9361 8.92367L74.8271 4.47224L77.2552 10.1453L72.4255 10.1377Z" fill="#373232"/>
</svg>
