<?xml version="1.0" encoding="UTF-8"?>
<svg id="Layer_1" data-name="Layer 1" xmlns="http://www.w3.org/2000/svg" viewBox="0 0 45 45">
  <defs>
    <style>
      .cls-1 {
        fill: none;
        stroke: #7fc318;
        stroke-miterlimit: 10;
        stroke-width: 2px;
      }

      .cls-2 {
        fill: #7fc318;
        stroke-width: 0px;
      }
    </style>
  </defs>
  <rect class="cls-1" x="2" y="2" width="41" height="41" rx="3.75" ry="3.75"/>
  <path class="cls-2" d="m31,10.7c1.6-.02,3.09.19,4.57.5.24.05.27.11.12.28-1.05,1.16-1.7,2.52-2.09,4.03-.34,1.29-.69,2.57-1.1,3.83-.55,1.68-1.65,2.81-3.27,3.46-1.27.51-2.6.78-3.96.81-.47.01-.78.17-1.02.59-.7,1.2-1.22,2.48-1.69,3.77-.71,1.94-1.29,3.92-1.78,5.93-.06.26-.19.46-.47.52-.36.08-.67-.15-.71-.54-.28-2.34-.89-4.6-1.68-6.82-1.17-3.31-2.65-6.47-4.58-9.4-.35-.53-.72-1.05-1.11-1.55-.24-.31-.23-.39.05-.67.24-.24.47-.49.71-.73.28-.28.42-.27.67.03,1.73,2.09,3.12,4.39,4.27,6.84.86,1.83,1.61,3.7,2.12,5.66.04.14.07.29.1.43.05.22.17.36.41.36.22,0,.34-.14.39-.35.15-.58.33-1.14.55-1.7.64-1.65,1.65-3.09,2.73-4.47,2.09-2.7,4.58-4.98,7.43-6.87.03-.02.07-.05.1-.07.21-.16.26-.38.14-.56-.12-.18-.36-.23-.57-.09-.45.3-.9.59-1.33.91-2.81,2.04-5.22,4.47-7.23,7.3-.02.03-.04.05-.06.08-.04.04-.06.12-.12.11-.08,0-.08-.1-.1-.16-.13-.49-.24-.98-.33-1.48-.23-1.37-.27-2.74.1-4.08.82-3.02,2.79-4.87,5.82-5.61.98-.24,1.99-.33,2.92-.3Z"/>
</svg>